<svg width="1465.23505859375px" height="249.43999633789062px" xmlns="http://www.w3.org/2000/svg" viewBox="-482.617529296875 -49.71999816894531 1465.23505859375 249.43999633789062" style="background: rgb(11, 29, 39);" preserveAspectRatio="xMidYMid"><defs><filter id="editing-hover" x="-100%" y="-100%" width="300%" height="300%"><feFlood flood-color="#0b1d27" result="flood"></feFlood><feComposite operator="in" in2="SourceAlpha" in="flood" result="shadow"></feComposite><feOffset dx="-4" dy="-4" in="SourceGraphic" result="offset-1"></feOffset><feOffset dx="4" dy="4" in="shadow" result="offset-2"></feOffset><feMerge><feMergeNode in="offset-2"></feMergeNode><feMergeNode in="offset-1"></feMergeNode></feMerge></filter></defs><g filter="url(#editing-hover)"><g transform="translate(-280.4099780321121, 141.7700138092041)"><path d="M32.48 0L0.87 0L19.29-95.70L51.18-95.70L32.48 0ZM158.77 2.90L158.77 2.90L158.77 2.90Q141.23 2.90 141.23-10.73L141.23-10.73L141.23-10.73Q141.23-16.67 143.77-28.20L143.77-28.20L143.77-28.20Q146.31-39.73 147.17-44.37L147.17-44.37L147.17-44.37Q149.20-54.95 149.20-58.29L149.20-58.29L149.20-58.29Q149.20-65.69 143.69-65.69L143.69-65.69L143.69-65.69Q140.07-65.69 136.59-60.68L136.59-60.68L136.59-60.68Q133.11-55.68 131.51-45.67L131.51-45.67L122.52 0L94.25 2.90L102.08-36.54L102.08-36.54Q103.38-43.06 104.54-50.46L104.54-50.46L104.54-50.46Q105.70-57.85 105.70-59.01L105.70-59.01L105.70-59.01Q105.70-65.69 100.77-65.69L100.77-65.69L100.77-65.69Q97.44-65.69 93.81-60.75L93.81-60.75L93.81-60.75Q90.19-55.82 88.16-45.67L88.16-45.67L79.31 0L50.75 2.90L65.97-73.95L89.61-76.85L87.14-62.20L87.14-62.20Q90.91-70.03 97.88-73.44L97.88-73.44L97.88-73.44Q104.83-76.85 115.71-76.85L115.71-76.85L115.71-76.85Q121.94-76.85 126.00-73.80L126.00-73.80L126.00-73.80Q130.06-70.76 131.37-65.83L131.37-65.83L131.37-65.83Q133.83-70.91 140.14-73.88L140.14-73.88L140.14-73.88Q146.45-76.85 154.21-76.85L154.21-76.85L154.21-76.85Q161.96-76.85 165.81-75.18L165.81-75.18L165.81-75.18Q169.65-73.52 171.97-70.76L171.97-70.76L171.97-70.76Q175.88-65.69 175.88-56.40L175.88-56.40L175.88-56.40Q175.88-47.27 171.97-28.27L171.97-28.27L171.97-28.27Q169.94-18.99 169.94-15.59L169.94-15.59L169.94-15.59Q169.94-12.18 171.90-10.15L171.90-10.15L171.90-10.15Q173.85-8.12 176.75-7.83L176.75-7.83L176.75-7.83Q175.31-2.90 170.30 0L170.30 0L170.30 0Q165.30 2.90 158.77 2.90ZM194.23-4.35L194.23-4.35L194.23-4.35Q190.82-8.12 189.30-14.06L189.30-14.06L189.30-14.06Q187.77-20.01 187.77-29.72L187.77-29.72L187.77-29.72Q187.77-39.44 191.11-48.28L191.11-48.28L191.11-48.28Q194.44-57.13 200.53-63.51L200.53-63.51L200.53-63.51Q213.00-76.85 233.59-76.85L233.59-76.85L233.59-76.85Q240.99-76.85 246.35-74.38L246.35-74.38L271.15-76.85L260.42-20.30L260.42-20.30Q259.99-18.56 259.99-15.37L259.99-15.37L259.99-15.37Q259.99-12.18 261.94-10.15L261.94-10.15L261.94-10.15Q263.90-8.12 266.80-7.83L266.80-7.83L266.80-7.83Q265.35-2.90 260.06 0L260.06 0L260.06 0Q254.76 2.90 248.82 2.90L248.82 2.90L248.82 2.90Q242.87 2.90 238.89 0.65L238.89 0.65L238.89 0.65Q234.90-1.59 233.74-5.36L233.74-5.36L233.74-5.36Q231.42-1.74 226.49 0.58L226.49 0.58L226.49 0.58Q221.56 2.90 214.96 2.90L214.96 2.90L214.96 2.90Q208.36 2.90 203.00 1.16L203.00 1.16L203.00 1.16Q197.63-0.58 194.23-4.35ZM224.82-63.22L224.82-63.22L224.82-63.22Q223.15-60.61 221.70-56.19L221.70-56.19L221.70-56.19Q220.25-51.76 217.86-39.95L217.86-39.95L217.86-39.95Q215.47-28.13 215.47-19.72L215.47-19.72L215.47-19.72Q215.47-11.31 216.77-8.84L216.77-8.84L216.77-8.84Q218.08-6.38 220.40-6.38L220.40-6.38L220.40-6.38Q225.04-6.38 228.45-10.80L228.45-10.80L228.45-10.80Q231.85-15.22 233.16-23.05L233.16-23.05L240.84-65.54L240.84-65.54Q237.80-68.15 234.25-68.15L234.25-68.15L234.25-68.15Q230.69-68.15 228.59-66.99L228.59-66.99L228.59-66.99Q226.49-65.83 224.82-63.22ZM288.69-60.61L288.69-60.61L288.69-60.61Q293.63-67.57 301.09-72.21L301.09-72.21L301.09-72.21Q308.56-76.85 317.69-76.85L317.69-76.85L317.69-76.85Q326.83-76.85 331.18-73.95L331.18-73.95L359.60-76.85L349.74-21.17L349.74-21.17Q344.66 7.25 333.94 18.41L333.94 18.41L333.94 18.41Q323.64 29.00 303.63 29.00L303.63 29.00L303.63 29.00Q288.40 29.00 279.70 24.21L279.70 24.21L279.70 24.21Q271.00 19.43 271.00 11.46L271.00 11.46L271.00 11.46Q271.00 5.51 275.50 2.10L275.50 2.10L275.50 2.10Q280.00-1.30 286.95-1.30L286.95-1.30L286.95-1.30Q293.05-1.30 297.69 1.45L297.69 1.45L297.69 1.45Q300.44 2.90 301.75 4.93L301.75 4.93L301.75 4.93Q298.41 7.83 298.41 12.61L298.41 12.61L298.41 12.61Q298.41 18.85 304.21 18.85L304.21 18.85L304.21 18.85Q313.93 18.85 319.44-4.06L319.44-4.06L319.44-4.06Q321.03-10.29 322.33-16.53L322.33-16.53L322.33-16.53Q315.81-8.55 301.02-8.55L301.02-8.55L301.02-8.55Q290.73-8.55 284.78-13.48L284.78-13.48L284.78-13.48Q278.83-18.41 278.83-30.01L278.83-30.01L278.83-30.01Q278.83-37.27 281.30-45.46L281.30-45.46L281.30-45.46Q283.76-53.65 288.69-60.61ZM307.55-29.58L307.55-29.58L307.55-29.58Q307.55-19.72 312.62-19.72L312.62-19.72L312.62-19.72Q316.10-19.72 319.44-23.49L319.44-23.49L319.44-23.49Q322.05-26.53 323.06-31.03L323.06-31.03L330.45-68.30L330.45-68.30Q329.73-68.44 329.00-68.73L329.00-68.73L329.00-68.73Q327.56-69.31 325.67-69.31L325.67-69.31L325.67-69.31Q316.82-69.31 311.61-54.81L311.61-54.81L311.61-54.81Q307.55-43.50 307.55-29.58ZM423.98-24.50L423.98-24.50L423.98-24.50Q427.60-22.04 427.60-16.60L427.60-16.60L427.60-16.60Q427.60-11.16 424.85-7.68L424.85-7.68L424.85-7.68Q422.09-4.21 417.60-1.88L417.60-1.88L417.60-1.88Q408.32 2.90 398.31 2.90L398.31 2.90L398.31 2.90Q388.31 2.90 382.44 0.72L382.44 0.72L382.44 0.72Q376.56-1.45 372.65-5.51L372.65-5.51L372.65-5.51Q364.96-13.19 364.96-27.26L364.96-27.26L364.96-27.26Q364.96-49.15 376.85-62.49L376.85-62.49L376.85-62.49Q389.61-76.85 411.80-76.85L411.80-76.85L411.80-76.85Q425.57-76.85 432.39-71.05L432.39-71.05L432.39-71.05Q437.46-66.70 437.46-59.59L437.46-59.59L437.46-59.59Q437.46-34.07 393.38-34.07L393.38-34.07L393.38-34.07Q392.80-30.30 392.80-27.11L392.80-27.11L392.80-27.11Q392.80-20.45 395.78-17.91L395.78-17.91L395.78-17.91Q398.75-15.37 404.26-15.37L404.26-15.37L404.26-15.37Q409.77-15.37 415.64-17.91L415.64-17.91L415.64-17.91Q421.51-20.45 423.98-24.50ZM394.40-40.31L394.40-40.31L394.40-40.31Q404.69-40.31 410.64-46.69L410.64-46.69L410.64-46.69Q416.58-52.78 416.58-62.49L416.58-62.49L416.58-62.49Q416.58-65.83 415.35-67.64L415.35-67.64L415.35-67.64Q414.12-69.45 411.65-69.45L411.65-69.45L411.65-69.45Q409.19-69.45 407.09-68.51L407.09-68.51L407.09-68.51Q404.98-67.57 402.81-64.38L402.81-64.38L402.81-64.38Q397.44-57.13 394.40-40.31ZM485.75-50.89L485.75-50.89L485.75-50.89Q487.78-56.26 487.78-60.90L487.78-60.90L487.78-60.90Q487.78-69.45 480.82-69.45L480.82-69.45L480.82-69.45Q477.19-69.45 474.22-66.19L474.22-66.19L474.22-66.19Q471.25-62.93 471.25-58.87L471.25-58.87L471.25-58.87Q471.25-55.97 473.57-53.65L473.57-53.65L473.57-53.65Q476.90-50.46 485.46-45.24L485.46-45.24L485.46-45.24Q494.01-40.02 497.28-35.74L497.28-35.74L497.28-35.74Q500.54-31.46 500.54-25.59L500.54-25.59L500.54-25.59Q500.54-19.72 497.71-14.35L497.71-14.35L497.71-14.35Q494.88-8.99 489.81-5.22L489.81-5.22L489.81-5.22Q478.93 2.90 461.53 2.90L461.53 2.90L461.53 2.90Q452.11 2.90 444.86-2.03L444.86-2.03L444.86-2.03Q437.61-6.81 437.61-12.47L437.61-12.47L437.61-12.47Q437.61-18.13 441.74-21.46L441.74-21.46L441.74-21.46Q445.87-24.79 451.96-24.79L451.96-24.79L451.96-24.79Q458.05-24.79 461.82-22.47L461.82-22.47L461.82-22.47Q459.94-17.69 459.94-14.50L459.94-14.50L459.94-14.50Q459.94-4.93 468.06-4.93L468.06-4.93L468.06-4.93Q471.54-4.93 473.86-7.10L473.86-7.10L473.86-7.10Q476.18-9.28 476.18-13.05L476.18-13.05L476.18-13.05Q476.18-20.45 463.71-28.27L463.71-28.27L463.71-28.27Q453.56-34.95 451.24-37.55L451.24-37.55L451.24-37.55Q447.32-42.20 447.32-47.99L447.32-47.99L447.32-47.99Q447.32-53.79 450.08-59.30L450.08-59.30L450.08-59.30Q452.83-64.81 457.91-68.73L457.91-68.73L457.91-68.73Q468.49-76.85 486.91-76.85L486.91-76.85L486.91-76.85Q496.33-76.85 501.92-73.08L501.92-73.08L501.92-73.08Q507.50-69.31 507.50-62.93L507.50-62.93L507.50-62.93Q507.50-56.55 503.66-52.92L503.66-52.92L503.66-52.92Q499.81-49.30 492.85-49.30L492.85-49.30L492.85-49.30Q488.07-49.30 485.75-50.89ZM601.46-46.69L630.75-49.30L630.75-49.30Q620.31-26.39 620.31 0.14L620.31 0.14L620.31 0.14Q616.39 2.90 610.67 2.90L610.67 2.90L610.67 2.90Q604.94 2.90 601.31 0.22L601.31 0.22L601.31 0.22Q597.69-2.46 596.96-5.22L596.96-5.22L596.96-5.22Q593.34-1.45 587.47 0.72L587.47 0.72L587.47 0.72Q581.60 2.90 575.36 2.90L575.36 2.90L575.36 2.90Q569.13 2.90 563.69 0.87L563.69 0.87L563.69 0.87Q558.25-1.16 554.04-5.65L554.04-5.65L554.04-5.65Q544.76-15.51 544.76-34.22L544.76-34.22L544.76-34.22Q544.76-63.22 560.28-80.62L560.28-80.62L560.28-80.62Q576.23-98.60 604.50-98.60L604.50-98.60L604.50-98.60Q624.08-98.60 631.04-88.45L631.04-88.45L631.04-88.45Q633.21-85.26 633.21-81.42L633.21-81.42L633.21-81.42Q633.21-77.57 631.55-74.31L631.55-74.31L631.55-74.31Q629.88-71.05 627.27-68.44L627.27-68.44L627.27-68.44Q621.03-62.64 613.35-62.64L613.35-62.64L613.35-62.64Q610.30-62.64 607.40-63.65L607.40-63.65L607.40-63.65Q607.99-68.00 607.99-73.08L607.99-73.08L607.99-73.08Q607.99-78.16 607.62-80.47L607.62-80.47L607.62-80.47Q607.26-82.79 606.39-84.68L606.39-84.68L606.39-84.68Q604.50-88.59 600.37-88.59L600.37-88.59L600.37-88.59Q596.24-88.59 591.67-84.17L591.67-84.17L591.67-84.17Q587.11-79.75 583.48-72.50L583.48-72.50L583.48-72.50Q575.50-56.26 575.50-36.68L575.50-36.68L575.50-36.68Q575.50-27.69 578.99-21.31L578.99-21.31L578.99-21.31Q582.75-14.35 589.42-14.35L589.42-14.35L589.42-14.35Q591.75-14.35 593.85-15.51L593.85-15.51L593.85-15.51Q595.95-16.67 596.82-17.54L596.82-17.54L601.46-46.69ZM644.16-4.35L644.16-4.35L644.16-4.35Q640.75-8.12 639.23-14.06L639.23-14.06L639.23-14.06Q637.71-20.01 637.71-29.72L637.71-29.72L637.71-29.72Q637.71-39.44 641.04-48.28L641.04-48.28L641.04-48.28Q644.38-57.13 650.47-63.51L650.47-63.51L650.47-63.51Q662.94-76.85 683.53-76.85L683.53-76.85L683.53-76.85Q690.92-76.85 696.29-74.38L696.29-74.38L721.09-76.85L710.36-20.30L710.36-20.30Q709.92-18.56 709.92-15.37L709.92-15.37L709.92-15.37Q709.92-12.18 711.88-10.15L711.88-10.15L711.88-10.15Q713.84-8.12 716.74-7.83L716.74-7.83L716.74-7.83Q715.28-2.90 709.99 0L709.99 0L709.99 0Q704.70 2.90 698.75 2.90L698.75 2.90L698.75 2.90Q692.81 2.90 688.82 0.65L688.82 0.65L688.82 0.65Q684.84-1.59 683.67-5.36L683.67-5.36L683.67-5.36Q681.36-1.74 676.42 0.58L676.42 0.58L676.42 0.58Q671.50 2.90 664.90 2.90L664.90 2.90L664.90 2.90Q658.30 2.90 652.93 1.16L652.93 1.16L652.93 1.16Q647.57-0.58 644.16-4.35ZM674.76-63.22L674.76-63.22L674.76-63.22Q673.09-60.61 671.64-56.19L671.64-56.19L671.64-56.19Q670.19-51.76 667.80-39.95L667.80-39.95L667.80-39.95Q665.40-28.13 665.40-19.72L665.40-19.72L665.40-19.72Q665.40-11.31 666.71-8.84L666.71-8.84L666.71-8.84Q668.01-6.38 670.34-6.38L670.34-6.38L670.34-6.38Q674.98-6.38 678.38-10.80L678.38-10.80L678.38-10.80Q681.79-15.22 683.10-23.05L683.10-23.05L690.78-65.54L690.78-65.54Q687.74-68.15 684.18-68.15L684.18-68.15L684.18-68.15Q680.63-68.15 678.53-66.99L678.53-66.99L678.53-66.99Q676.42-65.83 674.76-63.22ZM763.57-7.97L763.57-7.97L763.57-7.97Q759.07 2.90 744.72 2.90L744.72 2.90L744.72 2.90Q737.47 2.90 732.83-2.17L732.83-2.17L732.83-2.17Q729.06-6.38 729.06-11.16L729.06-11.16L729.06-11.16Q729.06-22.04 734.13-45.82L734.13-45.82L744.72-101.50L774.15-104.40L760.09-31.03L760.09-31.03Q757.62-20.30 757.62-16.53L757.62-16.53L757.62-16.53Q757.62-8.26 763.57-7.97ZM810.55-7.97L810.55-7.97L810.55-7.97Q806.05 2.90 791.70 2.90L791.70 2.90L791.70 2.90Q784.45 2.90 779.81-2.17L779.81-2.17L779.81-2.17Q776.04-6.38 776.04-11.16L776.04-11.16L776.04-11.16Q776.04-22.04 781.11-45.82L781.11-45.82L791.70-101.50L821.13-104.40L807.07-31.03L807.07-31.03Q804.60-20.30 804.60-16.53L804.60-16.53L804.60-16.53Q804.60-8.26 810.55-7.97ZM881.60-24.50L881.60-24.50L881.60-24.50Q885.22-22.04 885.22-16.60L885.22-16.60L885.22-16.60Q885.22-11.16 882.47-7.68L882.47-7.68L882.47-7.68Q879.71-4.21 875.22-1.88L875.22-1.88L875.22-1.88Q865.94 2.90 855.93 2.90L855.93 2.90L855.93 2.90Q845.93 2.90 840.06 0.72L840.06 0.72L840.06 0.72Q834.18-1.45 830.27-5.51L830.27-5.51L830.27-5.51Q822.58-13.19 822.58-27.26L822.58-27.26L822.58-27.26Q822.58-49.15 834.48-62.49L834.48-62.49L834.48-62.49Q847.24-76.85 869.42-76.85L869.42-76.85L869.42-76.85Q883.19-76.85 890.01-71.05L890.01-71.05L890.01-71.05Q895.08-66.70 895.08-59.59L895.08-59.59L895.08-59.59Q895.08-34.07 851.00-34.07L851.00-34.07L851.00-34.07Q850.42-30.30 850.42-27.11L850.42-27.11L850.42-27.11Q850.42-20.45 853.40-17.91L853.40-17.91L853.40-17.91Q856.37-15.37 861.88-15.37L861.88-15.37L861.88-15.37Q867.39-15.37 873.26-17.91L873.26-17.91L873.26-17.91Q879.13-20.45 881.60-24.50ZM852.02-40.31L852.02-40.31L852.02-40.31Q862.31-40.31 868.26-46.69L868.26-46.69L868.26-46.69Q874.20-52.78 874.20-62.49L874.20-62.49L874.20-62.49Q874.20-65.83 872.97-67.64L872.97-67.64L872.97-67.64Q871.74-69.45 869.27-69.45L869.27-69.45L869.27-69.45Q866.81-69.45 864.71-68.51L864.71-68.51L864.71-68.51Q862.61-67.57 860.43-64.38L860.43-64.38L860.43-64.38Q855.06-57.13 852.02-40.31ZM945.40-40.74L945.40-40.74L945.40-40.74Q950.62-50.02 950.62-59.45L950.62-59.45L950.62-59.45Q950.62-65.69 946.13-65.69L946.13-65.69L946.13-65.69Q942.64-65.69 939.02-59.74L939.02-59.74L939.02-59.74Q935.25-53.79 934.09-46.11L934.09-46.11L926.55 0L896.53 2.90L911.32-73.95L935.25-76.85L932.64-62.20L932.64-62.20Q939.75-76.85 955.69-76.85L955.69-76.85L955.69-76.85Q964.10-76.85 968.67-72.50L968.67-72.50L968.67-72.50Q973.24-68.15 973.24-59.23L973.24-59.23L973.24-59.23Q973.24-50.31 967.37-44.66L967.37-44.66L967.37-44.66Q961.49-39.00 951.49-39.00L951.49-39.00L951.49-39.00Q947.14-39.00 945.40-40.74ZM1021.67-16.38L1021.67-16.38L1021.67-16.38Q1014.13-8.55 1000.35-8.55L1000.35-8.55L1000.35-8.55Q983.10-8.55 979.47-21.17L979.47-21.17L979.47-21.17Q978.31-24.94 978.31-29.14L978.31-29.14L978.31-29.14Q978.31-33.35 979.18-37.70L979.18-37.70L986.00-73.95L1015.43-76.85L1007.46-34.66L1007.46-34.66Q1007.17-32.77 1006.73-30.74L1006.73-30.74L1006.73-30.74Q1006.30-28.71 1006.30-26.61L1006.30-26.61L1006.30-26.61Q1006.30-24.50 1007.02-23.13L1007.02-23.13L1007.02-23.13Q1007.75-21.75 1008.76-20.88L1008.76-20.88L1008.76-20.88Q1010.50-19.72 1013.62-19.72L1013.62-19.72L1013.62-19.72Q1016.74-19.72 1019.42-23.49L1019.42-23.49L1019.42-23.49Q1022.10-27.26 1023.41-33.78L1023.41-33.78L1031.38-73.95L1059.95-76.85L1049.07-19.86L1049.07-19.86Q1043.71 7.97 1032.69 18.99L1032.69 18.99L1032.69 18.99Q1027.03 24.65 1019.71 26.90L1019.71 26.90L1019.71 26.90Q1012.39 29.14 1002.96 29.14L1002.96 29.14L1002.96 29.14Q987.74 29.14 979.04 24.36L979.04 24.36L979.04 24.36Q970.34 19.57 970.34 11.60L970.34 11.60L970.34 11.60Q970.34 5.65 974.83 2.25L974.83 2.25L974.83 2.25Q979.33-1.16 986.29-1.16L986.29-1.16L986.29-1.16Q992.38-1.16 997.02 1.45L997.02 1.45L997.02 1.45Q999.77 3.04 1001.08 5.07L1001.08 5.07L1001.08 5.07Q997.74 7.97 997.74 12.76L997.74 12.76L997.74 12.76Q997.74 19.14 1003.54 19.14L1003.54 19.14L1003.54 19.14Q1013.11 19.14 1018.62-2.90L1018.62-2.90L1018.62-2.90Q1020.22-9.42 1021.67-16.38Z" fill="#72cbfd"></path></g></g><style>text {
  font-size: 64px;
  font-family: Arial Black;
  dominant-baseline: central;
  text-anchor: middle;
}</style></svg>